<svg width="84" height="64" viewBox="0 0 84 64" fill="none" xmlns="http://www.w3.org/2000/svg">
<path fill-rule="evenodd" clip-rule="evenodd" d="M40.3613 7.92961C37.585 3.18498 32.4352 -0.00189209 26.5411 -0.00189209C17.7041 -0.00189209 10.5403 7.16195 10.5403 15.999C10.5403 24.8361 17.7041 31.9999 26.5411 31.9999C32.4352 31.9999 37.585 28.813 40.3613 24.0684V7.92961Z" fill="url(#paint0_linear_148_4735)"/>
<path fill-rule="evenodd" clip-rule="evenodd" d="M40.3636 23.6696C36.9153 16.7037 29.7348 11.914 21.4357 11.914C9.77827 11.914 0.328094 21.3642 0.328094 33.0216C0.328094 44.679 9.77827 54.1291 21.4357 54.1291C29.7348 54.1291 36.9153 49.3395 40.3636 42.3736V23.6696Z" fill="url(#paint1_linear_148_4735)"/>
<path fill-rule="evenodd" clip-rule="evenodd" d="M40.3613 39.9317C37.585 35.1871 32.4352 32.0002 26.5411 32.0002C17.7041 32.0002 10.5403 39.1641 10.5403 48.0011C10.5403 56.8382 17.7041 64.002 26.5411 64.002C32.4352 64.002 37.585 60.8152 40.3613 56.0705V39.9317Z" fill="url(#paint2_linear_148_4735)"/>
<path fill-rule="evenodd" clip-rule="evenodd" d="M43.6319 7.92955C46.4082 3.18492 51.5579 -0.00195312 57.452 -0.00195312C66.2891 -0.00195312 73.4529 7.16189 73.4529 15.9989C73.4529 24.836 66.2891 31.9998 57.452 31.9998C51.5579 31.9998 46.4082 28.813 43.6319 24.0683V7.92955Z" fill="url(#paint3_linear_148_4735)"/>
<path fill-rule="evenodd" clip-rule="evenodd" d="M43.6344 23.6734C47.082 16.7054 54.2636 11.9139 62.5644 11.9139C74.2217 11.9139 83.6719 21.3641 83.6719 33.0214C83.6719 44.6788 74.2217 54.129 62.5644 54.129C54.2636 54.129 47.082 49.3375 43.6344 42.3695V23.6734Z" fill="url(#paint4_linear_148_4735)"/>
<path fill-rule="evenodd" clip-rule="evenodd" d="M43.6319 39.9317C46.4082 35.1871 51.5579 32.0002 57.452 32.0002C66.2891 32.0002 73.4529 39.164 73.4529 48.0011C73.4529 56.8381 66.2891 64.002 57.452 64.002C51.5579 64.002 46.4082 60.8151 43.6319 56.0705V39.9317Z" fill="url(#paint5_linear_148_4735)"/>
<defs>
<linearGradient id="paint0_linear_148_4735" x1="-4.06597" y1="26.7867" x2="57.227" y2="1.99572" gradientUnits="userSpaceOnUse">
<stop offset="0.386291" stop-color="#8657E2"/>
<stop offset="0.825" stop-color="#411991"/>
</linearGradient>
<linearGradient id="paint1_linear_148_4735" x1="-19.2811" y1="47.2522" x2="62.5947" y2="13.5492" gradientUnits="userSpaceOnUse">
<stop offset="0.386291" stop-color="#8657E2"/>
<stop offset="0.825" stop-color="#411991"/>
</linearGradient>
<linearGradient id="paint2_linear_148_4735" x1="-16.3191" y1="45.4818" x2="60.5559" y2="55.9273" gradientUnits="userSpaceOnUse">
<stop offset="0.470629" stop-color="#8657E2"/>
<stop offset="0.688" stop-color="#411991"/>
</linearGradient>
<linearGradient id="paint3_linear_148_4735" x1="88.0592" y1="26.7866" x2="26.7662" y2="1.99566" gradientUnits="userSpaceOnUse">
<stop offset="0.386291" stop-color="#8657E2"/>
<stop offset="0.723" stop-color="#411991"/>
</linearGradient>
<linearGradient id="paint4_linear_148_4735" x1="103.282" y1="47.252" x2="21.4035" y2="13.5463" gradientUnits="userSpaceOnUse">
<stop offset="0.386291" stop-color="#8657E2"/>
<stop offset="0.723" stop-color="#411991"/>
</linearGradient>
<linearGradient id="paint5_linear_148_4735" x1="100.312" y1="45.4818" x2="23.4373" y2="55.9272" gradientUnits="userSpaceOnUse">
<stop offset="0.470629" stop-color="#8657E2"/>
<stop offset="0.873" stop-color="#411991"/>
</linearGradient>
</defs>
</svg>
