<svg width="156" height="32" viewBox="0 0 156 32" fill="none" xmlns="http://www.w3.org/2000/svg">
<path fill-rule="evenodd" clip-rule="evenodd" d="M20.0137 3.96772C18.6259 1.59536 16.0512 0.00183105 13.1043 0.00183105C8.68647 0.00183105 5.1051 3.5832 5.1051 8.00103C5.1051 12.4189 8.68647 16.0002 13.1043 16.0002C16.0512 16.0002 18.6259 14.4067 20.0137 12.0343V3.96772Z" fill="url(#paint0_linear_21_642)"/>
<path fill-rule="evenodd" clip-rule="evenodd" d="M20.0147 11.8362C18.291 8.35335 14.701 5.9585 10.5518 5.9585C4.72399 5.9585 -0.000366211 10.6829 -0.000366211 16.5106C-0.000366211 22.3384 4.72399 27.0628 10.5518 27.0628C14.701 27.0628 18.291 24.6679 20.0147 21.1851V11.8362Z" fill="url(#paint1_linear_21_642)"/>
<path fill-rule="evenodd" clip-rule="evenodd" d="M20.0137 19.9662C18.6259 17.5938 16.0512 16.0003 13.1043 16.0003C8.68647 16.0003 5.1051 19.5817 5.1051 23.9995C5.1051 28.4173 8.68647 31.9987 13.1043 31.9987C16.0512 31.9987 18.6259 30.4052 20.0137 28.0328V19.9662Z" fill="url(#paint2_linear_21_642)"/>
<path fill-rule="evenodd" clip-rule="evenodd" d="M21.6485 3.96788C23.0363 1.5955 25.611 0.00195312 28.5579 0.00195312C32.9758 0.00195312 36.5571 3.58332 36.5571 8.00116C36.5571 12.419 32.9758 16.0004 28.5579 16.0004C25.611 16.0004 23.0363 14.4068 21.6485 12.0344V3.96788Z" fill="url(#paint3_linear_21_642)"/>
<path fill-rule="evenodd" clip-rule="evenodd" d="M21.6502 11.8365C23.3739 8.35356 26.9639 5.95862 31.1133 5.95862C36.9411 5.95862 41.6654 10.683 41.6654 16.5108C41.6654 22.3385 36.9411 27.0629 31.1133 27.0629C26.9639 27.0629 23.3739 24.668 21.6502 21.185V11.8365Z" fill="url(#paint4_linear_21_642)"/>
<path fill-rule="evenodd" clip-rule="evenodd" d="M21.6485 19.9664C23.0363 17.594 25.611 16.0004 28.5579 16.0004C32.9758 16.0004 36.5571 19.5818 36.5571 23.9996C36.5571 28.4175 32.9758 31.9988 28.5579 31.9988C25.611 31.9988 23.0363 30.4053 21.6485 28.0329V19.9664Z" fill="url(#paint5_linear_21_642)"/>
<path d="M149.212 10.456C149.122 9.46441 148.721 8.69365 148.009 8.14376C147.306 7.58485 146.301 7.3054 144.993 7.3054C144.128 7.3054 143.407 7.41808 142.83 7.64345C142.253 7.86881 141.82 8.17982 141.532 8.57646C141.243 8.96409 141.095 9.41032 141.086 9.91514C141.068 10.3298 141.149 10.6949 141.329 11.0104C141.518 11.3259 141.789 11.6054 142.14 11.8488C142.501 12.0832 142.934 12.2905 143.438 12.4708C143.943 12.6511 144.511 12.8088 145.142 12.9441L147.522 13.4849C148.892 13.7824 150.1 14.1791 151.146 14.6749C152.201 15.1707 153.084 15.7611 153.796 16.4463C154.517 17.1314 155.063 17.9202 155.432 18.8126C155.802 19.7051 155.991 20.7057 156 21.8145C155.991 23.5633 155.55 25.0643 154.675 26.3173C153.801 27.5704 152.543 28.5304 150.903 29.1975C149.271 29.8646 147.301 30.1981 144.993 30.1981C142.677 30.1981 140.657 29.8511 138.936 29.1569C137.214 28.4628 135.875 27.4081 134.92 25.9928C133.964 24.5775 133.473 22.7881 133.446 20.6246H139.855C139.909 21.517 140.148 22.2607 140.572 22.8557C140.995 23.4507 141.577 23.9014 142.316 24.2079C143.064 24.5144 143.93 24.6676 144.912 24.6676C145.814 24.6676 146.58 24.5459 147.211 24.3025C147.851 24.0591 148.342 23.7211 148.685 23.2884C149.028 22.8557 149.203 22.3599 149.212 21.801C149.203 21.2781 149.041 20.8319 148.726 20.4623C148.41 20.0837 147.923 19.7592 147.265 19.4887C146.616 19.2093 145.787 18.9523 144.777 18.718L141.883 18.0419C139.486 17.492 137.597 16.604 136.218 15.378C134.838 14.143 134.153 12.4753 134.162 10.3749C134.153 8.6621 134.613 7.16116 135.542 5.87207C136.47 4.58297 137.755 3.57783 139.395 2.85666C141.036 2.13549 142.907 1.7749 145.007 1.7749C147.152 1.7749 149.014 2.14 150.592 2.87018C152.178 3.59136 153.409 4.60551 154.283 5.91263C155.157 7.21976 155.604 8.73422 155.622 10.456H149.212Z" fill="#6732D1"/>
<path d="M130.414 12.1868H123.653C123.563 11.4927 123.378 10.8662 123.099 10.3073C122.819 9.74837 122.45 9.27059 121.99 8.87395C121.53 8.4773 120.985 8.17531 120.354 7.96797C119.732 7.75162 119.042 7.64344 118.285 7.64344C116.942 7.64344 115.783 7.97248 114.81 8.63055C113.845 9.28862 113.102 10.2397 112.579 11.4837C112.065 12.7277 111.808 14.2332 111.808 16C111.808 17.839 112.069 19.3805 112.592 20.6246C113.124 21.8596 113.868 22.7926 114.823 23.4236C115.788 24.0456 116.928 24.3566 118.244 24.3566C118.984 24.3566 119.655 24.262 120.259 24.0727C120.872 23.8834 121.409 23.6084 121.868 23.2478C122.337 22.8782 122.72 22.432 123.018 21.9091C123.324 21.3773 123.536 20.7778 123.653 20.1107L130.414 20.1513C130.297 21.3773 129.941 22.5852 129.346 23.7752C128.76 24.9651 127.953 26.0514 126.926 27.034C125.898 28.0076 124.645 28.7828 123.166 29.3598C121.697 29.9367 120.011 30.2252 118.109 30.2252C115.603 30.2252 113.358 29.6753 111.375 28.5755C109.401 27.4667 107.842 25.8531 106.697 23.7346C105.552 21.6162 104.979 19.038 104.979 16C104.979 12.9531 105.561 10.3704 106.724 8.25193C107.887 6.13349 109.46 4.52437 111.443 3.42458C113.426 2.3248 115.648 1.7749 118.109 1.7749C119.786 1.7749 121.336 2.00928 122.761 2.47805C124.185 2.93779 125.438 3.61389 126.52 4.50634C127.602 5.38978 128.481 6.47605 129.157 7.76514C129.833 9.05424 130.252 10.5281 130.414 12.1868Z" fill="#6732D1"/>
<path d="M101.444 12.1868H94.6833C94.5931 11.4927 94.4083 10.8662 94.1289 10.3073C93.8494 9.74837 93.4798 9.27059 93.0201 8.87395C92.5603 8.4773 92.0149 8.17531 91.3839 7.96797C90.7619 7.75162 90.0723 7.64344 89.315 7.64344C87.9719 7.64344 86.8135 7.97248 85.8399 8.63055C84.8753 9.28862 84.1316 10.2397 83.6088 11.4837C83.0949 12.7277 82.838 14.2332 82.838 16C82.838 17.839 83.0994 19.3805 83.6223 20.6246C84.1541 21.8596 84.8979 22.7926 85.8534 23.4236C86.818 24.0456 87.9583 24.3566 89.2745 24.3566C90.0137 24.3566 90.6853 24.262 91.2892 24.0727C91.9022 23.8834 92.4386 23.6084 92.8984 23.2478C93.3671 22.8782 93.7502 22.432 94.0477 21.9091C94.3542 21.3773 94.5661 20.7778 94.6833 20.1107L101.444 20.1513C101.327 21.3773 100.971 22.5852 100.376 23.7752C99.7901 24.9651 98.9833 26.0514 97.9556 27.034C96.9279 28.0076 95.6749 28.7828 94.1965 29.3598C92.7271 29.9367 91.0413 30.2252 89.1393 30.2252C86.6332 30.2252 84.3885 29.6753 82.4053 28.5755C80.4311 27.4667 78.8716 25.8531 77.7267 23.7346C76.5818 21.6162 76.0094 19.038 76.0094 16C76.0094 12.9531 76.5908 10.3704 77.7537 8.25193C78.9166 6.13349 80.4897 4.52437 82.4729 3.42458C84.4561 2.3248 86.6783 1.7749 89.1393 1.7749C90.816 1.7749 92.3665 2.00928 93.7908 2.47805C95.2151 2.93779 96.4682 3.61389 97.5499 4.50634C98.6317 5.38978 99.5106 6.47605 100.187 7.76514C100.863 9.05424 101.282 10.5281 101.444 12.1868Z" fill="#6732D1"/>
<path d="M51.4688 29.8469V2.15387H62.9084C64.9817 2.15387 66.7711 2.55953 68.2766 3.37085C69.791 4.17315 70.9584 5.29548 71.7788 6.73782C72.5991 8.17116 73.0093 9.83887 73.0093 11.741C73.0093 13.6521 72.5901 15.3243 71.7517 16.7576C70.9224 18.1819 69.737 19.2862 68.1954 20.0705C66.6539 20.8548 64.824 21.2469 62.7055 21.2469H55.647V15.9733H61.4615C62.4711 15.9733 63.314 15.7976 63.9901 15.446C64.6752 15.0944 65.1936 14.6031 65.5451 13.9721C65.8967 13.332 66.0725 12.5883 66.0725 11.741C66.0725 10.8846 65.8967 10.1454 65.5451 9.52336C65.1936 8.89233 64.6752 8.40554 63.9901 8.06298C63.305 7.72042 62.4621 7.54915 61.4615 7.54915H58.1621V29.8469H51.4688Z" fill="#6732D1"/>
<defs>
<linearGradient id="paint0_linear_21_642" x1="-2.19715" y1="13.394" x2="28.4454" y2="0.999669" gradientUnits="userSpaceOnUse">
<stop offset="0.386291" stop-color="#8657E2"/>
<stop offset="0.825" stop-color="#411991"/>
</linearGradient>
<linearGradient id="paint1_linear_21_642" x1="-9.80366" y1="23.6248" x2="31.1285" y2="6.77539" gradientUnits="userSpaceOnUse">
<stop offset="0.386291" stop-color="#8657E2"/>
<stop offset="0.825" stop-color="#411991"/>
</linearGradient>
<linearGradient id="paint2_linear_21_642" x1="-8.323" y1="22.7401" x2="30.1099" y2="27.9624" gradientUnits="userSpaceOnUse">
<stop offset="0.470629" stop-color="#8657E2"/>
<stop offset="0.688" stop-color="#411991"/>
</linearGradient>
<linearGradient id="paint3_linear_21_642" x1="43.8594" y1="13.3942" x2="13.2167" y2="0.999647" gradientUnits="userSpaceOnUse">
<stop offset="0.386291" stop-color="#8657E2"/>
<stop offset="0.723" stop-color="#411991"/>
</linearGradient>
<linearGradient id="paint4_linear_21_642" x1="51.4688" y1="23.6249" x2="10.5365" y2="6.77537" gradientUnits="userSpaceOnUse">
<stop offset="0.386291" stop-color="#8657E2"/>
<stop offset="0.723" stop-color="#411991"/>
</linearGradient>
<linearGradient id="paint5_linear_21_642" x1="49.9853" y1="22.7402" x2="11.5522" y2="27.9626" gradientUnits="userSpaceOnUse">
<stop offset="0.470629" stop-color="#8657E2"/>
<stop offset="0.873" stop-color="#411991"/>
</linearGradient>
</defs>
</svg>

