<svg width="156" height="32" viewBox="0 0 156 32" fill="none" xmlns="http://www.w3.org/2000/svg">
<path fill-rule="evenodd" clip-rule="evenodd" d="M20.0141 3.96772C18.6263 1.59536 16.0516 0.00183105 13.1047 0.00183105C8.68683 0.00183105 5.10547 3.5832 5.10547 8.00103C5.10547 12.4189 8.68683 16.0002 13.1047 16.0002C16.0516 16.0002 18.6263 14.4067 20.0141 12.0343V3.96772Z" fill="url(#paint0_linear_194_2479)"/>
<path fill-rule="evenodd" clip-rule="evenodd" d="M20.0151 11.8362C18.2913 8.35335 14.7014 5.9585 10.5521 5.9585C4.72435 5.9585 0 10.6829 0 16.5106C0 22.3384 4.72435 27.0628 10.5521 27.0628C14.7014 27.0628 18.2913 24.6679 20.0151 21.1851V11.8362Z" fill="url(#paint1_linear_194_2479)"/>
<path fill-rule="evenodd" clip-rule="evenodd" d="M20.0141 19.9662C18.6263 17.5938 16.0516 16.0003 13.1047 16.0003C8.68683 16.0003 5.10547 19.5817 5.10547 23.9995C5.10547 28.4173 8.68683 31.9987 13.1047 31.9987C16.0516 31.9987 18.6263 30.4052 20.0141 28.0328V19.9662Z" fill="url(#paint2_linear_194_2479)"/>
<path fill-rule="evenodd" clip-rule="evenodd" d="M21.6489 3.96788C23.0368 1.5955 25.6115 0.00195312 28.5584 0.00195312C32.9763 0.00195312 36.5576 3.58332 36.5576 8.00116C36.5576 12.419 32.9763 16.0004 28.5584 16.0004C25.6115 16.0004 23.0368 14.4068 21.6489 12.0344V3.96788Z" fill="url(#paint3_linear_194_2479)"/>
<path fill-rule="evenodd" clip-rule="evenodd" d="M21.6509 11.8365C23.3745 8.35356 26.9645 5.95862 31.1139 5.95862C36.9417 5.95862 41.666 10.683 41.666 16.5108C41.666 22.3385 36.9417 27.0629 31.1139 27.0629C26.9645 27.0629 23.3745 24.668 21.6509 21.185V11.8365Z" fill="url(#paint4_linear_194_2479)"/>
<path fill-rule="evenodd" clip-rule="evenodd" d="M21.6489 19.9664C23.0368 17.594 25.6115 16.0004 28.5584 16.0004C32.9763 16.0004 36.5576 19.5818 36.5576 23.9996C36.5576 28.4175 32.9763 31.9988 28.5584 31.9988C25.6115 31.9988 23.0368 30.4053 21.6489 28.0329V19.9664Z" fill="url(#paint5_linear_194_2479)"/>
<path d="M149.213 10.456C149.123 9.46441 148.721 8.69365 148.009 8.14376C147.306 7.58485 146.301 7.3054 144.994 7.3054C144.128 7.3054 143.407 7.41808 142.83 7.64345C142.253 7.86881 141.821 8.17982 141.532 8.57646C141.244 8.96409 141.095 9.41032 141.086 9.91514C141.068 10.3298 141.149 10.6949 141.329 11.0104C141.519 11.3259 141.789 11.6054 142.141 11.8488C142.501 12.0832 142.934 12.2905 143.439 12.4708C143.944 12.6511 144.512 12.8088 145.143 12.9441L147.522 13.4849C148.893 13.7824 150.101 14.1791 151.146 14.6749C152.201 15.1707 153.084 15.7611 153.797 16.4463C154.518 17.1314 155.063 17.9202 155.433 18.8126C155.802 19.7051 155.992 20.7057 156.001 21.8145C155.992 23.5633 155.55 25.0643 154.676 26.3173C153.801 27.5704 152.544 28.5304 150.903 29.1975C149.271 29.8646 147.302 30.1981 144.994 30.1981C142.677 30.1981 140.658 29.8511 138.936 29.1569C137.214 28.4628 135.875 27.4081 134.92 25.9928C133.964 24.5775 133.473 22.7881 133.446 20.6246H139.855C139.91 21.517 140.148 22.2607 140.572 22.8557C140.996 23.4507 141.577 23.9014 142.316 24.2079C143.065 24.5144 143.93 24.6676 144.913 24.6676C145.814 24.6676 146.58 24.5459 147.211 24.3025C147.851 24.0591 148.343 23.7211 148.685 23.2884C149.028 22.8557 149.204 22.3599 149.213 21.801C149.204 21.2781 149.041 20.8319 148.726 20.4623C148.41 20.0837 147.924 19.7592 147.266 19.4887C146.616 19.2093 145.787 18.9523 144.777 18.718L141.884 18.0419C139.486 17.492 137.597 16.604 136.218 15.378C134.839 14.143 134.154 12.4753 134.163 10.3749C134.154 8.6621 134.613 7.16116 135.542 5.87207C136.47 4.58297 137.755 3.57783 139.396 2.85666C141.036 2.13549 142.907 1.7749 145.007 1.7749C147.153 1.7749 149.014 2.14 150.592 2.87018C152.179 3.59136 153.409 4.60551 154.283 5.91263C155.158 7.21976 155.604 8.73422 155.622 10.456H149.213Z" fill="white"/>
<path d="M130.414 12.1868H123.653C123.563 11.4927 123.378 10.8662 123.099 10.3073C122.819 9.74837 122.45 9.27059 121.99 8.87395C121.53 8.4773 120.985 8.17531 120.354 7.96797C119.732 7.75162 119.042 7.64344 118.285 7.64344C116.942 7.64344 115.784 7.97248 114.81 8.63055C113.845 9.28862 113.102 10.2397 112.579 11.4837C112.065 12.7277 111.808 14.2332 111.808 16C111.808 17.839 112.07 19.3805 112.592 20.6246C113.124 21.8596 113.868 22.7926 114.823 23.4236C115.788 24.0456 116.928 24.3566 118.245 24.3566C118.984 24.3566 119.655 24.262 120.259 24.0727C120.872 23.8834 121.409 23.6084 121.868 23.2478C122.337 22.8782 122.72 22.432 123.018 21.9091C123.324 21.3773 123.536 20.7778 123.653 20.1107L130.414 20.1513C130.297 21.3773 129.941 22.5852 129.346 23.7752C128.76 24.9651 127.953 26.0514 126.926 27.034C125.898 28.0076 124.645 28.7828 123.167 29.3598C121.697 29.9367 120.011 30.2252 118.109 30.2252C115.603 30.2252 113.359 29.6753 111.375 28.5755C109.401 27.4667 107.842 25.8531 106.697 23.7346C105.552 21.6162 104.979 19.038 104.979 16C104.979 12.9531 105.561 10.3704 106.724 8.25193C107.887 6.13349 109.46 4.52437 111.443 3.42458C113.426 2.3248 115.648 1.7749 118.109 1.7749C119.786 1.7749 121.337 2.00928 122.761 2.47805C124.185 2.93779 125.438 3.61389 126.52 4.50634C127.602 5.38978 128.481 6.47605 129.157 7.76514C129.833 9.05424 130.252 10.5281 130.414 12.1868Z" fill="white"/>
<path d="M101.444 12.1868H94.6834C94.5932 11.4927 94.4084 10.8662 94.129 10.3073C93.8495 9.74837 93.4799 9.27059 93.0202 8.87395C92.5604 8.4773 92.015 8.17531 91.384 7.96797C90.762 7.75162 90.0724 7.64344 89.3152 7.64344C87.972 7.64344 86.8136 7.97248 85.84 8.63055C84.8754 9.28862 84.1317 10.2397 83.6089 11.4837C83.095 12.7277 82.8381 14.2332 82.8381 16C82.8381 17.839 83.0995 19.3805 83.6224 20.6246C84.1543 21.8596 84.898 22.7926 85.8535 23.4236C86.8181 24.0456 87.9585 24.3566 89.2746 24.3566C90.0138 24.3566 90.6854 24.262 91.2894 24.0727C91.9024 23.8834 92.4387 23.6084 92.8985 23.2478C93.3673 22.8782 93.7504 22.432 94.0479 21.9091C94.3544 21.3773 94.5662 20.7778 94.6834 20.1107L101.444 20.1513C101.327 21.3773 100.971 22.5852 100.376 23.7752C99.7902 24.9651 98.9834 26.0514 97.9557 27.034C96.928 28.0076 95.675 28.7828 94.1966 29.3598C92.7272 29.9367 91.0415 30.2252 89.1394 30.2252C86.6333 30.2252 84.3886 29.6753 82.4054 28.5755C80.4312 27.4667 78.8717 25.8531 77.7268 23.7346C76.582 21.6162 76.0095 19.038 76.0095 16C76.0095 12.9531 76.591 10.3704 77.7539 8.25193C78.9167 6.13349 80.4898 4.52437 82.473 3.42458C84.4563 2.3248 86.6784 1.7749 89.1394 1.7749C90.8161 1.7749 92.3666 2.00928 93.7909 2.47805C95.2153 2.93779 96.4683 3.61389 97.5501 4.50634C98.6318 5.38978 99.5107 6.47605 100.187 7.76514C100.863 9.05424 101.282 10.5281 101.444 12.1868Z" fill="white"/>
<path d="M51.469 29.8469V2.15387H62.9086C64.982 2.15387 66.7714 2.55953 68.2768 3.37085C69.7913 4.17315 70.9587 5.29548 71.779 6.73782C72.5994 8.17116 73.0095 9.83887 73.0095 11.741C73.0095 13.6521 72.5903 15.3243 71.752 16.7576C70.9226 18.1819 69.7372 19.2862 68.1957 20.0705C66.6542 20.8548 64.8242 21.2469 62.7058 21.2469H55.6473V15.9733H61.4617C62.4714 15.9733 63.3143 15.7976 63.9904 15.446C64.6755 15.0944 65.1938 14.6031 65.5454 13.9721C65.897 13.332 66.0727 12.5883 66.0727 11.741C66.0727 10.8846 65.897 10.1454 65.5454 9.52336C65.1938 8.89233 64.6755 8.40554 63.9904 8.06298C63.3052 7.72042 62.4624 7.54915 61.4617 7.54915H58.1624V29.8469H51.469Z" fill="white"/>
<defs>
<linearGradient id="paint0_linear_194_2479" x1="-2.19679" y1="13.394" x2="28.4458" y2="0.999669" gradientUnits="userSpaceOnUse">
<stop offset="0.386291" stop-color="white"/>
<stop offset="0.968086" stop-color="#C3C3C3"/>
</linearGradient>
<linearGradient id="paint1_linear_194_2479" x1="-9.8033" y1="23.6248" x2="31.1289" y2="6.77539" gradientUnits="userSpaceOnUse">
<stop offset="0.386291" stop-color="white"/>
<stop offset="0.968086" stop-color="#C3C3C3"/>
</linearGradient>
<linearGradient id="paint2_linear_194_2479" x1="-8.32264" y1="22.7401" x2="30.1103" y2="27.9624" gradientUnits="userSpaceOnUse">
<stop offset="0.470629" stop-color="white"/>
<stop offset="0.968086" stop-color="#C3C3C3"/>
</linearGradient>
<linearGradient id="paint3_linear_194_2479" x1="43.8599" y1="13.3942" x2="13.2172" y2="0.999647" gradientUnits="userSpaceOnUse">
<stop offset="0.386291" stop-color="white"/>
<stop offset="0.968086" stop-color="#C3C3C3"/>
</linearGradient>
<linearGradient id="paint4_linear_194_2479" x1="51.4694" y1="23.6249" x2="10.5371" y2="6.77537" gradientUnits="userSpaceOnUse">
<stop offset="0.386291" stop-color="white"/>
<stop offset="0.968086" stop-color="#C3C3C3"/>
</linearGradient>
<linearGradient id="paint5_linear_194_2479" x1="49.9858" y1="22.7402" x2="11.5526" y2="27.9626" gradientUnits="userSpaceOnUse">
<stop offset="0.470629" stop-color="white"/>
<stop offset="0.968086" stop-color="#C3C3C3"/>
</linearGradient>
</defs>
</svg>
