<?xml version="1.0" standalone="no"?>
<!DOCTYPE svg PUBLIC "-//W3C//DTD SVG 20010904//EN"
 "http://www.w3.org/TR/2001/REC-SVG-20010904/DTD/svg10.dtd">
<svg version="1.0" xmlns="http://www.w3.org/2000/svg"
 width="478.000000pt" height="405.000000pt" viewBox="0 0 478.000000 405.000000"
 preserveAspectRatio="xMidYMid meet">

<g transform="translate(0.000000,405.000000) scale(0.100000,-0.100000)"
fill="#000000" stroke="none">
<path d="M1552 4020 c-111 -30 -207 -85 -288 -165 -108 -107 -156 -222 -170
-406 -6 -79 -9 -89 -25 -84 -9 3 -70 6 -136 7 -87 1 -134 -3 -178 -16 -140
-41 -243 -121 -332 -258 -73 -111 -88 -167 -88 -323 1 -126 2 -133 38 -224 21
-52 36 -95 35 -96 -2 -1 -27 -15 -57 -31 -75 -40 -180 -146 -225 -225 -123
-223 -91 -519 77 -696 43 -46 51 -60 51 -91 -1 -20 -2 -91 -4 -157 -3 -109 -1
-126 22 -187 113 -300 390 -458 688 -393 36 8 79 14 96 15 31 0 31 0 38 -63
35 -346 269 -578 586 -579 213 -1 402 91 501 245 83 128 109 257 112 542 1
106 5 196 8 199 3 3 46 -8 95 -26 75 -27 103 -32 179 -32 75 0 101 5 155 27
177 74 272 214 274 402 1 197 -103 359 -274 427 -44 18 -75 22 -160 22 -90 0
-115 -4 -173 -27 -37 -15 -74 -27 -81 -27 -10 0 -15 28 -21 115 l-7 114 -31 5
c-18 3 -70 7 -117 10 -184 11 -346 105 -455 264 -67 98 -97 193 -103 322 -8
193 47 331 187 470 126 125 223 166 420 177 l103 6 -5 141 c-5 165 -24 238
-87 334 -112 174 -277 270 -480 278 -73 3 -112 0 -168 -16z"/>
</g>
</svg>
